<svg width="822" height="1080" viewBox="0 0 822 1080" fill="none" xmlns="http://www.w3.org/2000/svg">
<path d="M741.961 737.995L812.794 720.26C820.718 718.267 823.943 708.753 818.85 702.384L791.428 668.033C785.892 661.109 776.835 658.006 768.208 660.117L614.01 697.669C612.113 698.133 610.339 699.003 608.812 700.221C607.285 701.438 606.041 702.973 605.166 704.719L547.646 819.699C543.329 828.311 531.548 829.583 525.534 822.062L411.844 679.886C407.095 673.946 404.149 666.77 403.354 659.206C402.559 651.643 403.949 644.009 407.359 637.211L496.221 459.617C500.54 451.004 512.32 449.734 518.334 457.256L632.958 600.598C639.622 608.932 635.368 621.37 624.989 623.925L576.839 635.736C570.093 637.393 564.5 630.399 567.587 624.195L630.266 497.94C633.146 492.149 634.312 485.656 633.625 479.225C632.939 472.795 630.429 466.694 626.391 461.643L317.208 75.0844C312.698 69.4439 303.85 70.4009 300.628 76.8762L271.623 135.332C270.226 138.143 268.233 140.617 265.783 142.58C263.333 144.543 260.485 145.949 257.437 146.7L23.9706 204.249C16.3298 206.133 9.98284 198.224 13.4778 191.155L79.2791 58.6236C82.1307 52.8878 89.9532 52.0504 93.9397 57.0357L141.997 117.133C151.667 129.226 153.426 145.849 146.516 159.735L44.9863 363.525C41.1485 371.217 30.6436 372.355 25.2786 365.646L-77.5551 237.047C-79.1587 235.04 -81.3029 233.534 -83.7348 232.706C-86.1667 231.879 -88.7848 231.764 -91.2802 232.375L-157.3 248.434C-163.404 249.929 -165.912 257.236 -161.994 262.136L-138.256 291.821C-133.507 297.761 -130.56 304.938 -129.765 312.501C-128.97 320.065 -130.36 327.698 -133.771 334.497L-204.674 476.023C-208.991 484.638 -220.771 485.907 -226.786 478.386L-340.474 336.213C-345.223 330.274 -348.17 323.097 -348.965 315.533C-349.76 307.97 -348.37 300.337 -344.96 293.538L-274.017 152.002C-269.699 143.389 -257.919 142.118 -251.904 149.639L-226.333 181.618C-223.816 184.762 -220.455 187.122 -216.644 188.422C-212.832 189.722 -208.729 189.907 -204.815 188.955L-87.7889 160.134C-80.4589 158.359 -77.447 149.575 -82.1516 143.691L-206.388 -11.6722M-269.377 9.60707L-34.1741 -47.6729C-29.3804 -48.845 -25.405 -43.8735 -27.6018 -39.4539L-85.5574 80.5596C-87.4694 84.4004 -84.0289 88.7029 -79.8617 87.6824L-13.9592 71.6249C-10.4807 70.7812 -7.22916 69.1855 -4.43352 66.9499C-1.63789 64.7144 0.633936 61.8935 2.22199 58.6856L117.249 -173.134L-57.7812 -130.505L-253.482 262.201C-255.119 265.479 -255.784 269.157 -255.399 272.8C-255.014 276.444 -253.594 279.901 -251.308 282.764L-28.7939 561.03C-24.3971 566.528 -17.1912 568.986 -10.3402 567.314L55.8415 551.195C61.0487 549.927 63.1919 543.683 59.843 539.495L-12.4589 449.137C-19.9875 439.722 -34.7799 441.321 -40.1375 452.145L-181.42 736.905C-184.843 743.799 -194.257 744.812 -199.053 738.814L-319.177 588.592C-324.463 581.983 -321.081 572.111 -312.842 570.099L-176.921 536.955C-170.515 535.392 -163.796 535.69 -157.555 537.815C-151.314 539.94 -145.809 543.804 -141.689 548.951L-71.3755 636.882C-68.1396 640.931 -66.1287 645.821 -65.5796 650.976C-65.0305 656.13 -65.9661 661.335 -68.2763 665.976L-131.707 793.808C-135.112 800.667 -128.947 808.346 -121.51 806.532L102.911 751.243C110.551 749.36 116.899 757.268 113.403 764.336L47.602 896.868C44.7501 902.606 36.9276 903.443 32.9403 898.457L-37.8976 809.87C-47.5678 797.777 -49.3266 781.155 -42.417 767.269L59.1127 563.479C62.9506 555.786 73.4565 554.647 78.8215 561.357L204.436 718.444C206.04 720.451 208.184 721.957 210.616 722.785C213.048 723.613 215.666 723.728 218.161 723.116L284.181 707.057C290.284 705.563 292.794 698.256 288.875 693.356L265.137 663.67C260.388 657.73 257.442 650.554 256.647 642.99C255.851 635.427 257.241 627.794 260.651 620.995L360.739 420.902C365.058 412.288 376.838 411.019 382.852 418.54L496.542 560.714C501.29 566.654 504.237 573.831 505.032 581.394C505.827 588.958 504.437 596.591 501.027 603.39L400.939 803.482C396.622 812.097 384.842 813.367 378.827 805.845L353.254 773.865C350.738 770.721 347.377 768.361 343.565 767.061C339.754 765.762 335.65 765.577 331.737 766.528L184.185 802.386C176.855 804.161 173.842 812.944 178.546 818.828L302.783 974.192C307.932 980.631 316.367 983.484 324.382 981.513L471.571 945.173C478.878 943.368 481.862 934.608 477.169 928.74L449.535 894.182C446.615 890.534 442.714 887.796 438.29 886.29C433.866 884.785 429.103 884.575 424.563 885.685L189.36 942.965C184.566 944.136 180.59 939.164 182.788 934.746L212.478 874.923C214.39 871.082 210.95 866.779 206.782 867.8L140.88 883.857C137.401 884.701 134.15 886.297 131.354 888.533C128.558 890.768 126.286 893.589 124.698 896.797L9.59831 1128.58L184.629 1085.96L380.351 693.276C381.988 689.997 382.653 686.32 382.268 682.676C381.883 679.033 380.464 675.575 378.178 672.712L155.663 394.447C151.266 388.948 144.06 386.491 137.209 388.162L71.0277 404.282C65.8194 405.551 63.6772 411.793 67.0261 415.981L139.328 506.34C146.857 515.755 161.649 514.155 167.007 503.332L308.301 218.586C311.723 211.692 321.138 210.68 325.933 216.676L446.057 366.898C451.343 373.507 447.962 383.381 439.722 385.394L303.801 418.535C297.395 420.098 290.677 419.8 284.436 417.675C278.195 415.55 272.69 411.687 268.57 406.541L198.257 318.61C195.02 314.56 193.009 309.67 192.46 304.515C191.911 299.361 192.847 294.156 195.157 289.515L256.992 164.896" stroke="url(#paint0_linear_314_598)" stroke-width="1.356" stroke-miterlimit="10"/>
<defs>
<linearGradient id="paint0_linear_314_598" x1="-439.01" y1="655.718" x2="1026.11" y2="761.77" gradientUnits="userSpaceOnUse">
<stop stop-color="white" stop-opacity="0.6"/>
<stop offset="0.703908" stop-color="white" stop-opacity="0"/>
</linearGradient>
</defs>
</svg>
