<svg width="206" height="52" viewBox="0 0 206 52" fill="none" xmlns="http://www.w3.org/2000/svg">
<g clip-path="url(#clip0_313_175)">
<mask id="mask0_313_175" style="mask-type:luminance" maskUnits="userSpaceOnUse" x="0" y="0" width="206" height="52">
<path d="M205.713 0H0.288086V52H205.713V0Z" fill="white"/>
</mask>
<g mask="url(#mask0_313_175)">
<path d="M76.6572 6.69739L70.426 23.414H83.1025L76.8713 6.69739H76.6572ZM59.6133 37.9058L73.9947 0.847656H79.5343L93.9152 37.9058C90.6577 37.9058 87.7524 35.9136 86.6614 32.9311L84.8074 27.8647H68.7745L66.8906 32.9389C65.7841 35.9197 62.8736 37.9058 59.6133 37.9058Z" fill="white"/>
<path d="M120.441 37.9072H115.753V34.3874H115.539C114.794 35.6293 113.649 36.6643 112.104 37.4923C110.559 38.3204 108.952 38.7353 107.284 38.7353C104.088 38.7353 101.628 37.8474 99.9073 36.0693C98.185 34.2929 97.3242 31.7656 97.3242 28.4874V12.5469H102.224V28.1765C102.33 32.3175 104.478 34.3874 108.668 34.3874C110.622 34.3874 112.255 33.6209 113.569 32.0843C114.882 30.5489 115.539 28.7127 115.539 26.5723V12.5469H120.441V37.9072Z" fill="white"/>
<path d="M132.638 37.9064H127.736V12.5461H132.424V16.6859H132.638C133.134 15.3401 134.156 14.1933 135.7 13.245C137.244 12.2956 138.762 11.8203 140.254 11.8203C141.673 11.8203 142.881 12.0289 143.876 12.4421L142.384 17.0488C141.78 16.8073 140.821 16.6859 139.509 16.6859C137.661 16.6859 136.054 17.41 134.689 18.8599C133.32 20.3097 132.638 22.0006 132.638 23.9318V37.9064Z" fill="white"/>
<path d="M153.729 37.9055H148.828V12.5451H153.729V37.9055ZM154.741 3.79737C154.741 4.72946 154.403 5.52344 153.729 6.17931C153.054 6.83407 152.237 7.16228 151.278 7.16228C150.32 7.16228 149.502 6.83407 148.828 6.17931C148.154 5.52344 147.816 4.72946 147.816 3.79737C147.816 2.8664 148.154 2.07299 148.828 1.41656C149.502 0.761808 150.32 0.433594 151.278 0.433594C152.237 0.433594 153.054 0.761808 153.729 1.41656C154.403 2.07299 154.741 2.8664 154.741 3.79737Z" fill="white"/>
<path d="M173.488 0.435547C175.262 0.435547 176.719 0.729093 177.855 1.31563L176.524 5.5075C175.671 5.0943 174.713 4.8863 173.648 4.8863C172.44 4.8863 171.455 5.2928 170.692 6.10241C169.928 6.91317 169.545 7.99231 169.545 9.33816V12.5471H176.365V16.8933H169.545V37.9074H164.646V16.8933H159.746V12.5471H164.646V8.87127C164.646 6.35291 165.472 4.31821 167.123 2.76436C168.774 1.21163 170.895 0.435547 173.488 0.435547Z" fill="white"/>
<path d="M205.713 12.5469L189.361 50.253C186.841 50.253 185.154 47.7341 186.176 45.4959L190.372 36.3025L181.758 17.2845C180.748 15.0524 182.43 12.5469 184.94 12.5469L192.716 30.7636H192.822L198.393 17.3471C199.597 14.4463 202.494 12.5469 205.713 12.5469Z" fill="white"/>
</g>
<path d="M61.4053 44.4211V43.8008H65.8625V44.4211H63.9935V49.5752H63.2742V44.4211H61.4053Z" fill="white"/>
<path d="M71.3438 49.5741V43.7997H74.9303V44.42H72.0636V46.3711H74.7445V46.9914H72.0636V48.9537H74.9769V49.5741H71.3438ZM85.861 45.6042H85.1411C85.0986 45.403 85.0243 45.2264 84.9179 45.0741C84.8132 44.9218 84.6854 44.794 84.5347 44.6906C84.3856 44.5854 84.2205 44.5065 84.0386 44.4538C83.8568 44.4012 83.6669 44.3748 83.4701 44.3748C83.1099 44.3748 82.7842 44.4632 82.4919 44.6399C82.2019 44.8166 81.9706 45.0769 81.7985 45.4209C81.6282 45.7649 81.5431 46.1868 81.5431 46.6869C81.5431 47.1869 81.6282 47.6088 81.7985 47.9528C81.9706 48.2968 82.2019 48.5571 82.4919 48.7338C82.7842 48.9105 83.1099 48.9989 83.4701 48.9989C83.6669 48.9989 83.8568 48.9726 84.0386 48.9199C84.2205 48.8673 84.3856 48.7893 84.5347 48.6859C84.6854 48.5806 84.8132 48.4519 84.9179 48.2996C85.0243 48.1455 85.0986 47.9688 85.1411 47.7695H85.861C85.8063 48.0647 85.7079 48.3288 85.5647 48.5618C85.422 48.795 85.2436 48.9932 85.0307 49.1568C84.8183 49.3184 84.579 49.4415 84.3143 49.5261C84.0513 49.6107 83.7699 49.653 83.4701 49.653C82.9632 49.653 82.5121 49.5327 82.1179 49.2921C81.7232 49.0515 81.4124 48.7094 81.1863 48.2658C80.9602 47.8222 80.8468 47.2959 80.8468 46.6869C80.8468 46.0779 80.9602 45.5515 81.1863 45.1079C81.4124 44.6643 81.7232 44.3222 82.1179 44.0816C82.5121 43.841 82.9632 43.7207 83.4701 43.7207C83.7699 43.7207 84.0513 43.763 84.3143 43.8476C84.579 43.9322 84.8183 44.0562 85.0307 44.2198C85.2436 44.3814 85.422 44.5788 85.5647 44.8119C85.7079 45.0431 85.8063 45.3072 85.861 45.6042Z" fill="white"/>
<path d="M92.0127 49.5752V43.8008H92.732V46.3722H95.9008V43.8008H96.6206V49.5752H95.9008V46.9925H92.732V49.5752H92.0127Z" fill="white"/>
<path d="M107.569 43.7997V49.5741H106.872L103.634 45.0403H103.576V49.5741H102.856V43.7997H103.553L106.803 48.3447H106.861V43.7997H107.569ZM119.257 46.6869C119.257 47.2959 119.144 47.8222 118.918 48.2658C118.691 48.7094 118.381 49.0515 117.987 49.2921C117.592 49.5327 117.141 49.653 116.634 49.653C116.127 49.653 115.677 49.5327 115.282 49.2921C114.887 49.0515 114.577 48.7094 114.35 48.2658C114.124 47.8222 114.011 47.2959 114.011 46.6869C114.011 46.0779 114.124 45.5515 114.35 45.1079C114.577 44.6643 114.887 44.3222 115.282 44.0816C115.677 43.841 116.127 43.7207 116.634 43.7207C117.141 43.7207 117.592 43.841 117.987 44.0816C118.381 44.3222 118.691 44.6643 118.918 45.1079C119.144 45.5515 119.257 46.0779 119.257 46.6869ZM118.561 46.6869C118.561 46.1868 118.474 45.7649 118.302 45.4209C118.132 45.0769 117.901 44.8166 117.609 44.6399C117.319 44.4632 116.994 44.3748 116.634 44.3748C116.274 44.3748 115.948 44.4632 115.656 44.6399C115.366 44.8166 115.135 45.0769 114.963 45.4209C114.792 45.7649 114.707 46.1868 114.707 46.6869C114.707 47.1869 114.792 47.6088 114.963 47.9528C115.135 48.2968 115.366 48.5571 115.656 48.7338C115.948 48.9105 116.274 48.9989 116.634 48.9989C116.994 48.9989 117.319 48.9105 117.609 48.7338C117.901 48.5571 118.132 48.2968 118.302 47.9528C118.474 47.6088 118.561 47.1869 118.561 46.6869ZM125.702 49.5741V43.7997H126.421V48.9537H129.184V49.5741H125.702ZM140.546 46.6869C140.546 47.2959 140.433 47.8222 140.207 48.2658C139.981 48.7094 139.67 49.0515 139.275 49.2921C138.881 49.5327 138.43 49.653 137.923 49.653C137.417 49.653 136.966 49.5327 136.571 49.2921C136.177 49.0515 135.866 48.7094 135.64 48.2658C135.413 47.8222 135.3 47.2959 135.3 46.6869C135.3 46.0779 135.413 45.5515 135.64 45.1079C135.866 44.6643 136.177 44.3222 136.571 44.0816C136.966 43.841 137.417 43.7207 137.923 43.7207C138.43 43.7207 138.881 43.841 139.275 44.0816C139.67 44.3222 139.981 44.6643 140.207 45.1079C140.433 45.5515 140.546 46.0779 140.546 46.6869ZM139.85 46.6869C139.85 46.1868 139.764 45.7649 139.592 45.4209C139.421 45.0769 139.19 44.8166 138.898 44.6399C138.608 44.4632 138.283 44.3748 137.923 44.3748C137.563 44.3748 137.238 44.4632 136.945 44.6399C136.655 44.8166 136.424 45.0769 136.252 45.4209C136.082 45.7649 135.997 46.1868 135.997 46.6869C135.997 47.1869 136.082 47.6088 136.252 47.9528C136.424 48.2968 136.655 48.5571 136.945 48.7338C137.238 48.9105 137.563 48.9989 137.923 48.9989C138.283 48.9989 138.608 48.9105 138.898 48.7338C139.19 48.5571 139.421 48.2968 139.592 47.9528C139.764 47.6088 139.85 47.1869 139.85 46.6869ZM151.053 45.6042C150.989 45.4143 150.905 45.2442 150.8 45.0938C150.698 44.9416 150.575 44.8119 150.432 44.7047C150.291 44.5976 150.131 44.5159 149.95 44.4594C149.77 44.4031 149.573 44.3748 149.358 44.3748C149.006 44.3748 148.686 44.4632 148.398 44.6399C148.11 44.8166 147.881 45.0769 147.71 45.4209C147.54 45.7649 147.455 46.1868 147.455 46.6869C147.455 47.1869 147.541 47.6088 147.713 47.9528C147.885 48.2968 148.118 48.5571 148.412 48.7338C148.706 48.9105 149.037 48.9989 149.405 48.9989C149.746 48.9989 150.045 48.9284 150.304 48.7874C150.566 48.6445 150.769 48.4434 150.914 48.184C151.061 47.9227 151.134 47.6154 151.134 47.2621L151.355 47.3071H149.567V46.6869H151.831V47.3071C151.831 47.7827 151.726 48.1963 151.517 48.5478C151.31 48.8992 151.024 49.1718 150.658 49.3654C150.295 49.5572 149.877 49.653 149.405 49.653C148.879 49.653 148.416 49.5327 148.018 49.2921C147.621 49.0515 147.312 48.7094 147.089 48.2658C146.869 47.8222 146.759 47.2959 146.759 46.6869C146.759 46.2301 146.821 45.8194 146.947 45.4548C147.075 45.0882 147.255 44.7762 147.487 44.5186C147.719 44.2611 147.994 44.0638 148.311 43.9266C148.628 43.7893 148.977 43.7207 149.358 43.7207C149.672 43.7207 149.964 43.7668 150.235 43.8589C150.507 43.9491 150.75 44.0779 150.963 44.2452C151.178 44.4106 151.357 44.6089 151.5 44.8401C151.643 45.0694 151.742 45.3241 151.796 45.6042H151.053Z" fill="white"/>
<path d="M159.047 43.8008V49.5752H158.327V43.8008H159.047ZM165.342 49.5752V43.8008H168.928V44.4211H166.061V46.3722H168.742V46.9925H166.061V48.9549H168.974V49.5752H165.342Z" fill="white"/>
<path d="M178.249 45.2433C178.214 44.9576 178.073 44.7358 177.826 44.5779C177.578 44.42 177.274 44.341 176.915 44.341C176.652 44.341 176.421 44.3824 176.224 44.4651C176.028 44.5478 175.875 44.6615 175.766 44.8062C175.657 44.951 175.603 45.1155 175.603 45.2997C175.603 45.4538 175.641 45.5863 175.716 45.6972C175.794 45.8062 175.892 45.8974 176.012 45.9707C176.132 46.0421 176.257 46.1014 176.389 46.1483C176.521 46.1934 176.642 46.2301 176.752 46.2583L177.355 46.4162C177.51 46.4557 177.682 46.5102 177.872 46.5798C178.064 46.6493 178.246 46.7442 178.42 46.8645C178.597 46.9829 178.742 47.1351 178.856 47.3213C178.97 47.5074 179.027 47.7357 179.027 48.0064C179.027 48.3185 178.943 48.6004 178.774 48.8523C178.608 49.1042 178.364 49.3043 178.043 49.4528C177.724 49.6013 177.336 49.6755 176.88 49.6755C176.454 49.6755 176.085 49.6088 175.774 49.4754C175.465 49.3419 175.221 49.1558 175.043 48.9171C174.867 48.6784 174.767 48.4011 174.744 48.0853H175.487C175.506 48.3034 175.581 48.4838 175.713 48.6267C175.847 48.7677 176.015 48.873 176.218 48.9425C176.423 49.0102 176.644 49.044 176.88 49.044C177.155 49.044 177.401 49.0008 177.62 48.9143C177.838 48.8259 178.011 48.7038 178.139 48.5478C178.267 48.3899 178.331 48.2057 178.331 47.9951C178.331 47.8034 178.275 47.6474 178.165 47.5271C178.055 47.4068 177.91 47.309 177.73 47.2338C177.55 47.1587 177.355 47.0929 177.147 47.0365L176.415 46.8335C175.951 46.7038 175.584 46.5186 175.313 46.278C175.042 46.0374 174.906 45.7226 174.906 45.3335C174.906 45.0102 174.997 44.7282 175.176 44.4876C175.358 44.2452 175.602 44.0572 175.908 43.9237C176.215 43.7884 176.558 43.7207 176.938 43.7207C177.321 43.7207 177.661 43.7875 177.959 43.9209C178.257 44.0525 178.493 44.2329 178.667 44.4623C178.843 44.6916 178.936 44.9519 178.946 45.2433H178.249Z" fill="white"/>
<mask id="mask1_313_175" style="mask-type:luminance" maskUnits="userSpaceOnUse" x="9" y="0" width="23" height="15">
<path d="M9.55176 5.5914L24.8579 14.1462C26.5266 11.686 28.8858 9.72903 31.5328 8.27527L18.1255 0.78279C17.2048 0.223653 16.2266 0 15.2484 0C12.3138 0 9.55176 2.34839 9.55176 5.5914Z" fill="white"/>
</mask>
<g mask="url(#mask1_313_175)">
<path d="M-69.7412 -109.592V361.143H272.792L272.792 -109.591L-69.7412 -109.592Z" fill="url(#paint0_linear_313_175)"/>
</g>
<mask id="mask2_313_175" style="mask-type:luminance" maskUnits="userSpaceOnUse" x="25" y="9" width="22" height="33">
<path d="M25.8936 14.7052L44.307 25.0493L40.3366 27.2858C40.3366 27.2858 33.4891 31.3675 26.2963 35.617C28.0226 37.9654 30.3818 39.8106 33.0863 41.0407L45.2852 34.1632C46.2634 31.4235 46.7813 28.46 46.7813 25.3288C46.7813 22.0299 46.1483 18.7869 45.055 15.8794L32.7986 9.00195C30.0366 10.288 27.6774 12.3009 25.8936 14.7052Z" fill="white"/>
</mask>
<g mask="url(#mask2_313_175)">
<path d="M-69.7412 361.144H272.792V-109.59H-69.7412V361.144Z" fill="url(#paint1_linear_313_175)"/>
</g>
<mask id="mask3_313_175" style="mask-type:luminance" maskUnits="userSpaceOnUse" x="0" y="10" width="23" height="30">
<path d="M0 14.7616L18.4134 25.0498L14.443 27.2864C14.443 27.2864 7.59553 31.3681 0.402796 35.6176L0.460337 35.6735C3.27989 39.3638 8.57374 40.3143 12.6592 38.0218L22.8441 32.2627C21.9235 30.0262 21.4056 27.6778 21.4056 25.1057C21.4056 22.5896 21.9235 20.1294 22.8441 17.9487L12.429 12.0778C10.933 11.2391 9.32179 10.8477 7.71061 10.8477C4.77598 10.8477 1.84134 12.2455 0 14.7616Z" fill="white"/>
</mask>
<g mask="url(#mask3_313_175)">
<path d="M-69.7406 -109.592L-69.7412 361.143H272.792V-109.591L-69.7406 -109.592Z" fill="url(#paint2_linear_313_175)"/>
</g>
<mask id="mask4_313_175" style="mask-type:luminance" maskUnits="userSpaceOnUse" x="9" y="36" width="23" height="15">
<path d="M9.66699 45.5141C9.66699 49.3722 14.0402 51.8324 17.4927 49.8754L31.8206 41.7679C29.2312 40.4819 26.9296 38.5808 25.2608 36.2324C17.8955 40.5937 10.4726 45.0109 9.66699 45.5141Z" fill="white"/>
</mask>
<g mask="url(#mask4_313_175)">
<path d="M-69.7406 -109.592L-69.7412 361.143H272.792V-109.591L-69.7406 -109.592Z" fill="url(#paint3_linear_313_175)"/>
</g>
</g>
<defs>
<linearGradient id="paint0_linear_313_175" x1="20.5345" y1="0.00901458" x2="20.5345" y2="14.1357" gradientUnits="userSpaceOnUse">
<stop stop-color="#306EBB"/>
<stop offset="0.205952" stop-color="#3070BC"/>
<stop offset="0.571429" stop-color="#3A96D2"/>
<stop offset="0.792857" stop-color="#42BCE9"/>
<stop offset="1" stop-color="#53CABB"/>
</linearGradient>
<linearGradient id="paint1_linear_313_175" x1="25.9105" y1="25.025" x2="46.8051" y2="25.025" gradientUnits="userSpaceOnUse">
<stop stop-color="#306EBB"/>
<stop offset="0.205952" stop-color="#3070BC"/>
<stop offset="0.571429" stop-color="#3A96D2"/>
<stop offset="0.792857" stop-color="#42BCE9"/>
<stop offset="1" stop-color="#53CABB"/>
</linearGradient>
<linearGradient id="paint2_linear_313_175" x1="11.447" y1="10.8519" x2="11.447" y2="39.258" gradientUnits="userSpaceOnUse">
<stop stop-color="#306EBB"/>
<stop offset="0.205952" stop-color="#3070BC"/>
<stop offset="0.571429" stop-color="#3A96D2"/>
<stop offset="0.792857" stop-color="#42BCE9"/>
<stop offset="1" stop-color="#53CABB"/>
</linearGradient>
<linearGradient id="paint3_linear_313_175" x1="20.7627" y1="36.2502" x2="20.7627" y2="50.5565" gradientUnits="userSpaceOnUse">
<stop stop-color="#306EBB"/>
<stop offset="0.205952" stop-color="#3070BC"/>
<stop offset="0.571429" stop-color="#3A96D2"/>
<stop offset="0.792857" stop-color="#42BCE9"/>
<stop offset="1" stop-color="#53CABB"/>
</linearGradient>
<clipPath id="clip0_313_175">
<rect width="206" height="52" fill="white"/>
</clipPath>
</defs>
</svg>
